<svg xmlns="http://www.w3.org/2000/svg" viewBox="0 0 1200 520" role="img" aria-labelledby="title desc">
<title id="title">Private StayCare support illustration</title>
<desc id="desc">Calm illustration for private hotel support during a stay.</desc>
<defs>
  <linearGradient id="bg" x1="0" y1="0" x2="1" y2="1">
    <stop offset="0" stop-color="hsl(165 38% 94%)"/>
    <stop offset="1" stop-color="hsl(35 54% 91%)"/>
  </linearGradient>
  <linearGradient id="hill" x1="0" y1="0" x2="0" y2="1">
    <stop offset="0" stop-color="hsl(166 24% 56%)"/>
    <stop offset="1" stop-color="hsl(168 32% 24%)"/>
  </linearGradient>
  <filter id="shadow" x="-20%" y="-20%" width="140%" height="140%"><feDropShadow dx="0" dy="16" stdDeviation="18" flood-color="hsl(168 38% 16%)" flood-opacity=".16"/></filter>
</defs>
<rect width="1200" height="520" rx="44" fill="url(#bg)"/>
<path d="M0 376 C180 316 270 346 420 286 C555 232 650 250 785 192 C948 122 1066 148 1200 88 L1200 520 L0 520 Z" fill="hsl(151 25% 83%)" opacity=".72"/>
<path d="M0 420 C230 355 340 398 520 326 C710 250 830 312 1020 220 C1110 178 1160 175 1200 162 L1200 520 L0 520 Z" fill="url(#hill)" opacity=".80"/>
<g filter="url(#shadow)">
  <rect x="226" y="152" width="380" height="246" rx="44" fill="white"/>
  <circle cx="336" cy="270" r="58" fill="hsl(31 47% 58%)"/>
  <rect x="302" y="326" width="76" height="44" rx="22" fill="hsl(171 47% 32%)"/>
  <rect x="432" y="212" width="120" height="18" rx="9" fill="hsl(171 47% 32%)" opacity=".78"/>
  <rect x="432" y="252" width="92" height="12" rx="6" fill="hsl(166 23% 65%)"/>
  <rect x="432" y="286" width="126" height="12" rx="6" fill="hsl(166 23% 65%)"/>
</g>
<path d="M770 180 C838 216 850 298 774 354 C698 298 708 216 770 180Z" fill="white" opacity=".86"/>
<path d="M744 268 l22 22 l48 -60" stroke="hsl(171 47% 32%)" stroke-width="16" fill="none" stroke-linecap="round" stroke-linejoin="round"/>
</svg>
